<?xml version="1.0" encoding="iso-8859-1"?>
<!-- Generator: Adobe Illustrator 21.0.0, SVG Export Plug-In . SVG Version: 6.00 Build 0)  -->
<svg xmlns="http://www.w3.org/2000/svg" xmlns:xlink="http://www.w3.org/1999/xlink" version="1.1" id="Capa_1" x="0px" y="0px" viewBox="0 0 511.904 511.904" style="enable-background:new 0 0 511.904 511.904;" xml:space="preserve" width="512" height="512">
<g>
	<g>
		<path style="fill-rule:evenodd;clip-rule:evenodd;fill:#FF836C;" d="M52.185,74.531c-56.276,56.275-56.276,147.517,0,203.793    L224.781,450.92l45.339-169.205l-77.274-20.705l52.538-196.077C188.779,18.466,105.053,21.663,52.185,74.531z"/>
		<path style="fill-rule:evenodd;clip-rule:evenodd;fill:#FF836C;" d="M291.156,48.66l-49.32,184.065l77.274,20.705l-60.597,226.151    l115.131-115.131c-1.251-1.043-2.466-2.152-3.641-3.326c-21.04-21.04-21.04-55.152,0-76.193l38.096-38.096l38.096,38.096    c1.174,1.174,2.283,2.39,3.324,3.644l10.251-10.251c56.276-56.276,56.276-147.517,0-203.793    C414.129,28.889,345.49,20.268,291.156,48.66z"/>
		<path style="fill-rule:evenodd;clip-rule:evenodd;fill:#A4DDED;" d="M408.099,246.835l-38.096,38.096    c-21.04,21.04-21.04,55.153,0,76.193c1.174,1.174,2.389,2.283,3.641,3.326c21.167,17.648,52.686,16.539,72.552-3.326    c19.866-19.866,20.975-51.385,3.327-72.552c-1.043-1.251-2.152-2.466-3.327-3.641L408.099,246.835z"/>
	</g>
	<g>
		<path d="M278.778,276.715c-1.326-2.297-3.51-3.973-6.072-4.659l-67.614-18.117l49.95-186.418c1.017-3.791-0.28-7.826-3.314-10.317    c-24.031-19.728-53.146-31.584-84.199-34.29c-30.696-2.673-61.096,3.744-87.919,18.563c-4.835,2.67-6.589,8.754-3.918,13.588    c2.669,4.834,8.755,6.587,13.588,3.918C135,33.728,192.343,37.81,234.011,68.736l-50.825,189.686    c-0.687,2.562-0.327,5.291,0.999,7.588s3.51,3.973,6.072,4.659l67.613,18.117l-38.268,142.815L59.255,271.252    c-42.02-42.02-51.323-107.656-22.623-159.617c2.67-4.835,0.915-10.918-3.919-13.589c-4.836-2.671-10.918-0.917-13.589,3.919    C3.292,130.63-3.02,164.384,1.352,197.007c4.518,33.713,19.65,64.276,43.761,88.388l172.596,172.597    c1.9,1.9,4.454,2.929,7.071,2.929c0.863,0,1.732-0.111,2.588-0.341c3.451-0.925,6.146-3.62,7.071-7.071l45.339-169.205    C280.464,281.741,280.104,279.012,278.778,276.715z"/>
		<path d="M466.84,285.395c60.085-60.085,60.085-157.85,0-217.935c-23.67-23.67-53.643-38.72-86.68-43.522    c-31.927-4.644-65.182,0.991-93.637,15.859c-2.48,1.296-4.305,3.572-5.028,6.275l-49.32,184.065    c-0.687,2.562-0.327,5.291,0.999,7.588s3.51,3.973,6.072,4.659l67.614,18.117l-17.358,64.782    c-1.43,5.334,1.736,10.817,7.071,12.247c0.867,0.232,1.737,0.344,2.594,0.344c4.415,0,8.456-2.947,9.653-7.415l19.946-74.441    c0.687-2.562,0.327-5.291-0.999-7.588s-3.51-3.973-6.072-4.659l-67.614-18.117l45.572-170.075    c51.401-24.826,112.398-14.623,153.044,26.023c52.287,52.286,52.287,137.363,0,189.649l-3.02,3.02l-34.509-34.508    c-3.906-3.904-10.236-3.904-14.143,0L362.93,277.86c-23.697,23.697-24.829,61.522-3.432,86.592l-81.667,81.669l10.285-38.387    c1.43-5.334-1.736-10.817-7.071-12.247c-5.333-1.428-10.817,1.737-12.247,7.071l-19.945,74.436    c-1.172,4.371,0.739,8.985,4.659,11.248c1.561,0.901,3.284,1.34,4.997,1.34c2.588,0,5.148-1.003,7.074-2.929l109.16-109.161    c10.196,6.244,21.771,9.382,33.356,9.382c16.355,0,32.716-6.228,45.168-18.679c21.271-21.271,24.359-53.927,9.296-78.523    L466.84,285.395z M439.123,354.053c-17.107,17.108-44.943,17.106-62.051,0c-17.107-17.107-17.107-44.942,0-62.05l31.025-31.025    l31.025,31.025C456.23,309.11,456.23,336.945,439.123,354.053z"/>
		<path d="M52.179,84.536c2.56,0,5.118-0.977,7.071-2.929l0.005-0.005c3.905-3.905,3.902-10.234-0.003-14.14    s-10.239-3.902-14.145,0.002c-3.905,3.905-3.905,10.237,0,14.143C47.061,83.56,49.619,84.536,52.179,84.536z"/>
		<path d="M286.059,376.128c0.918,0.263,1.843,0.388,2.752,0.388c4.352,0,8.355-2.863,9.61-7.256l0.002-0.007    c1.518-5.311-1.559-10.842-6.869-12.358c-5.305-1.519-10.846,1.561-12.363,6.871S280.748,374.61,286.059,376.128z"/>
	</g>
</g>















</svg>
