<svg id="Capa_1" enable-background="new 0 0 512 512" height="512" viewBox="0 0 512 512" width="512" xmlns="http://www.w3.org/2000/svg"><g><path d="m341.823 83.096c-34.551-.953-65.543 14.43-85.823 38.987-20.28-24.557-51.273-39.94-85.823-38.987-6.149.169-12.13.857-17.914 2.017-53.666 10.768-74.596 89.22-71.929 119.189 11.508 129.34 151.967 202.931 177.666 215.948l18.007-.998c46.91-26.745 160.707-102.756 169.559-214.95 4.973-63.03-40.541-119.464-103.743-121.206z" fill="#ff9ba5"/><path d="m91.21 196.044c-3.756-47.61 21.333-91.575 61.052-110.931-53.623 10.802-90.316 62.318-85.829 119.189 10.214 129.448 160.133 210.729 185.832 223.746 2.362 1.197 5.108 1.197 7.47 0 3.415-1.73 9.089-4.702 16.272-8.796-28.373-14.518-174.71-95.359-184.797-223.208z" fill="#ff7d91"/><path d="m297.29 339.054c-3.79 0-7.089-2.581-8.008-6.254l-33.927-135.702-32.726 111.254c-1 3.423-4.097 5.81-7.661 5.923-3.758.077-6.806-2.081-8.016-5.431l-25.645-70.508-8.476 21.206c-1.258 3.133-4.29 5.19-7.669 5.19h-83.276l-11.886-7.732 5.502-8.784h84.071l14.435-36.101c1.274-3.173 4.073-5.278 7.798-5.19 3.427.056 6.46 2.218 7.629 5.435l24.444 67.214 34.202-116.27c1.048-3.573 4.403-5.948 8.089-5.927 3.726.077 6.935 2.641 7.839 6.254l33.282 133.117 25.024-100.085c.879-3.528 3.968-6.065 7.605-6.246 3.863-.073 6.96 2.052 8.177 5.472l18.694 52.327h79.708l6.627 8.284-13.013 8.232h-79.145c-3.492 0-6.605-2.194-7.774-5.48l-11.476-32.121-26.42 105.669c-.919 3.674-4.217 6.254-8.008 6.254z" fill="#ffe07d"/><g fill="#ffd064"><path d="m81.886 264.732c-2.358-5.391-4.493-10.892-6.384-16.516h-38.212c-3.784 0-7.195-1.754-10.05-4.237-3.814-3.318-9.147-4.912-14.867-3.513-5.943 1.452-10.743 6.447-11.998 12.434-2.239 10.682 5.853 20.09 16.141 20.09 4.356 0 8.287-1.705 11.221-4.471 2.384-2.247 5.342-3.787 8.618-3.787z"/><path d="m430.112 264.732c2.358-5.391 4.495-10.892 6.386-16.516h38.212c3.784 0 7.195-1.754 10.05-4.237 3.814-3.318 9.147-4.912 14.867-3.513 5.942 1.453 10.743 6.447 11.998 12.435 2.239 10.682-5.853 20.09-16.141 20.09-4.356 0-8.287-1.705-11.221-4.471-2.384-2.247-5.342-3.787-8.618-3.787h-45.533z"/></g></g></svg>